<svg xmlns="http://www.w3.org/2000/svg" xmlns:xlink="http://www.w3.org/1999/xlink" width="600" height="150" viewBox="0 0 600 150" fill="none">
<path     fill="#FFFFFF" fill-opacity="0" d="M0 150L600 150L600 0L0 0L0 150Z">
</path>
<path d="M12.5691 127.049C13.022 127.054 13.4632 127.197 13.8368 127.458C14.2104 127.72 14.4997 128.089 14.6681 128.518C14.8364 128.948 14.8763 129.418 14.7826 129.871C14.6889 130.323 14.466 130.737 14.1418 131.06C13.8177 131.383 13.4071 131.601 12.9617 131.686C12.5164 131.771 12.0565 131.719 11.6401 131.537C11.2236 131.355 10.8694 131.051 10.6222 130.663C10.375 130.276 10.246 129.822 10.2513 129.36C10.2549 129.052 10.3177 128.749 10.4361 128.467C10.5545 128.184 10.7262 127.929 10.9414 127.714C11.1566 127.499 11.4112 127.33 11.6904 127.216C11.9697 127.102 12.2683 127.045 12.5691 127.049Z" fill-rule="evenodd" style="mix-blend-mode:normal" fill="#C2F5E7" >
</path>
<path d="M19.3741 123.431L27.5251 119.731C28.5129 119.282 29.6463 119.685 30.0567 120.63L30.4281 121.485C30.8385 122.43 30.3703 123.56 29.3825 124.008L21.2315 127.708C20.2437 128.157 19.1103 127.754 18.7 126.809L18.3285 125.954C17.9181 125.009 18.3863 123.879 19.3741 123.431Z"  style="mix-blend-mode:normal" fill="#C2F5E7" >
</path>
<path d="M15.7021 132.774L23.8313 129.03C24.8164 128.576 25.9517 128.972 26.3669 129.914L26.7428 130.767C27.158 131.709 26.6959 132.841 25.7107 133.295L17.5816 137.04C16.5964 137.493 15.4612 137.097 15.046 136.155L14.6701 135.302C14.2549 134.36 14.7169 133.228 15.7021 132.774Z"  style="mix-blend-mode:normal" fill="#C2F5E7" >
</path>
<path d="M110.051 100.845C108.33 99.723 106.931 98.1715 105.991 96.3434C105.052 94.5153 104.604 92.4737 104.692 90.4197C104.692 89.9772 104.692 89.3135 104.83 88.4286L118.201 88.4286C118.105 89.2328 118.186 90.0483 118.439 90.8177C118.692 91.587 119.11 92.2913 119.665 92.8808C120.314 93.4647 121.075 93.9104 121.901 94.1909C122.728 94.4714 123.602 94.5808 124.472 94.5124C126.108 94.6092 127.73 94.162 129.086 93.2403C129.628 92.8308 130.061 92.2932 130.345 91.6756C130.63 91.058 130.757 90.3795 130.716 89.7007C130.726 88.9263 130.535 88.1627 130.162 87.4841C129.789 86.8056 129.247 86.2354 128.589 85.8291C126.486 84.4948 124.256 83.3738 121.931 82.483C119.488 81.5251 117.116 80.3978 114.831 79.1093C112.954 78.0465 111.317 76.6059 110.024 74.8783C108.609 72.8578 107.891 70.4306 107.979 67.9648C107.867 64.7985 108.767 61.6789 110.549 59.0603C112.371 56.4806 114.892 54.4754 117.814 53.2807C121.206 51.8985 124.844 51.2211 128.506 51.2896C131.786 51.2344 135.047 51.7973 138.12 52.9489C140.656 53.8944 142.876 55.5327 144.529 57.6776C146.096 59.8459 146.911 62.4684 146.849 65.1441C146.849 65.8908 146.849 66.4162 146.849 66.7757L133.036 66.7757C133.071 66.4817 133.071 66.1848 133.036 65.8908C133.061 65.2571 132.945 64.6258 132.697 64.0424C132.448 63.459 132.074 62.938 131.6 62.517C130.563 61.6884 129.28 61.2308 127.953 61.2173C126.386 61.1529 124.841 61.6099 123.561 62.517C123.014 62.9196 122.574 63.4503 122.28 64.0627C121.987 64.6751 121.847 65.3503 121.875 66.0291C121.881 66.7784 122.076 67.514 122.444 68.167C122.811 68.82 123.338 69.3689 123.975 69.7623C126.032 71.1454 128.215 72.3306 130.495 73.302C132.987 74.3935 135.413 75.6309 137.76 77.0076C139.671 78.1757 141.318 79.7297 142.595 81.5705C143.989 83.6786 144.668 86.1806 144.529 88.7051C144.582 91.6621 143.713 94.5621 142.042 97.0012C140.237 99.4823 137.765 101.4 134.915 102.532C131.457 103.958 127.742 104.655 124.003 104.578C119.081 104.788 114.212 103.485 110.051 100.845Z"  style="mix-blend-mode:normal" fill="#1A1A1A" >
</path>
<path d="M232.113 51.2849L209.122 103.663L193.602 103.663L191.286 69.2637L176.511 103.663L160.99 103.663L156.938 51.2849L170.722 51.2849L171.549 89.4133L187.648 51.2849L201.817 51.2849L204.077 89.1907L218.385 51.2849L232.113 51.2849Z"  style="mix-blend-mode:normal" fill="#1A1A1A" >
</path>
<path d="M251.369 51.2849L242.123 103.663L229.365 103.663L238.611 51.2849L251.369 51.2849Z"  style="mix-blend-mode:normal" fill="#1A1A1A" >
</path>
<path d="M294.46 51.2849L292.686 61.3597L271.481 61.3597L269.544 72.6313L285.454 72.6313L283.653 82.3165L267.77 82.3165L264.058 103.663L251.368 103.663L260.565 51.2849L294.46 51.2849Z"  style="mix-blend-mode:normal" fill="#1A1A1A" >
</path>
<path d="M338.46 51.2849L336.737 61.3597L322.845 61.3597L315.406 103.663L302.69 103.663L310.128 61.3597L296.291 61.3597L298.096 51.2849L338.46 51.2849Z"  style="mix-blend-mode:normal" fill="#1A1A1A" >
</path>
<path d="M378.649 76.4994C376.658 79.1136 374.06 81.1951 371.083 82.5608C367.571 84.1814 363.736 84.9708 359.873 84.8686L351.921 84.8686L348.525 103.664L335.713 103.664L345.018 51.3362L365.81 51.3362C370.256 51.0047 374.673 52.2869 378.262 54.9508C379.656 56.1523 380.759 57.6587 381.487 59.3549C382.214 61.0512 382.547 62.8925 382.459 64.7381C382.477 65.8948 382.375 67.0503 382.156 68.1858C381.667 71.2004 380.464 74.052 378.649 76.4994ZM369.095 68.158C369.185 67.5873 369.241 67.0116 369.261 66.4341C369.296 65.7403 369.176 65.0474 368.908 64.4071C368.64 63.7668 368.232 63.1956 367.715 62.7361C366.348 61.7652 364.689 61.3032 363.021 61.4293L356.035 61.4293L353.799 74.8867L360.702 74.8867C362.695 75.1064 364.694 74.5261 366.265 73.2718C367.836 72.0175 368.853 70.1901 369.095 68.1858L369.095 68.158Z"  style="mix-blend-mode:normal" fill="#1A1A1A" >
</path>
<path d="M425.85 54.8732C427.236 56.0445 428.341 57.5153 429.083 59.1761C429.825 60.8368 430.185 62.6446 430.135 64.4645C430.138 65.5377 430.036 66.6085 429.831 67.6616C429.251 71.1953 427.656 74.4811 425.241 77.1139C422.584 79.9678 419.168 81.9942 415.399 82.9521L423.887 103.664L409.371 103.664L401.934 83.8973L398.865 83.8973L395.326 103.664L382.47 103.664L391.787 51.3425L413.353 51.3425C417.803 50.9927 422.232 52.244 425.85 54.8732ZM416.809 66.633C416.852 65.941 416.737 65.2483 416.473 64.6076C416.21 63.9668 415.804 63.395 415.288 62.9355C413.966 61.9768 412.352 61.5145 410.726 61.6288L402.763 61.6288L400.441 74.7508L408.404 74.7508C410.393 74.8627 412.356 74.2509 413.933 73.0272C415.4 71.7986 416.381 70.0826 416.698 68.1898C416.764 67.7014 416.801 67.2093 416.809 66.7164L416.809 66.633Z"  style="mix-blend-mode:normal" fill="#1A1A1A" >
</path>
<path d="M444.323 101.726C441.053 99.9626 438.356 97.2875 436.551 94.0194C434.679 90.5192 433.736 86.5892 433.815 82.612C433.717 76.9369 435.075 71.3327 437.755 66.3433C440.31 61.7007 444.101 57.8733 448.701 55.295C453.589 52.5717 459.099 51.1907 464.681 51.2899C468.761 51.2067 472.797 52.1563 476.42 54.052C479.711 55.766 482.432 58.4165 484.246 61.6754C486.119 65.1355 487.062 69.0302 486.982 72.9723C487.08 78.6649 485.723 84.2868 483.042 89.2962C480.51 94.0123 476.718 97.9166 472.097 100.566C467.183 103.302 461.645 104.692 456.034 104.598C451.952 104.656 447.923 103.668 444.323 101.726ZM466.542 90.2354C469.016 88.5321 470.999 86.1971 472.288 83.4682C473.664 80.5926 474.366 77.4362 474.34 74.2429C474.419 72.7304 474.195 71.2174 473.683 69.7939C473.171 68.3704 472.38 67.0655 471.358 65.9566C470.265 64.9147 468.974 64.1081 467.563 63.5857C466.151 63.0634 464.65 62.8363 463.149 62.9183C460.073 62.8565 457.05 63.7325 454.474 65.4318C451.912 67.0652 449.833 69.3645 448.454 72.0885C447.07 74.951 446.367 78.1007 446.402 81.2862C446.316 82.8204 446.536 84.3564 447.048 85.8034C447.56 87.2504 448.355 88.579 449.385 89.7106C450.502 90.7751 451.825 91.5965 453.27 92.1239C454.715 92.6512 456.252 92.8734 457.785 92.7765C460.856 92.8349 463.872 91.9486 466.432 90.2354L466.542 90.2354Z"  style="mix-blend-mode:normal" fill="#1A1A1A" >
</path>
<path d="M524.469 78.5777L537.216 104.6L522.386 104.6L514.573 88.5349L502.347 104.6L487.901 104.6L509.228 78.0199L496.618 52.2203L511.448 52.2203L519.206 68.0627L531.212 52.2203L545.659 52.2203L524.469 78.5777Z"  style="mix-blend-mode:normal" fill="#1A1A1A" >
</path>
<path d="M597.913 51.2849L573.865 86.3519L570.763 103.663L558.114 103.663L561.215 86.3519L549.327 51.2849L563.663 51.2849L569.866 73.1322L583.713 51.2849L597.913 51.2849Z"  style="mix-blend-mode:normal" fill="#1A1A1A" >
</path>
<path d="M52.1091 27.1142C60.7301 26.808 61.4737 33.5718 51.7234 34.4625C34.9221 36.8007 9.91298 45.2624 3.55052 59.7642C2.02052 63.1998 1.60953 67.0376 2.37679 70.7244C3.14406 74.4112 5.04994 77.7566 7.81971 80.2783C5.7271 77.6209 4.52684 74.3588 4.39312 70.9653C4.2594 67.5719 5.19916 64.2236 7.07604 61.4065C13.3283 50.8015 30.1572 42.9243 54.8083 40.1408C52.1096 43.2165 50.5859 47.1647 50.5116 51.2747C62.8302 42.1348 77.5057 36.798 92.7627 35.9099C80.6628 23.676 65.2371 15.3535 48.4458 12C50.7466 14.64 52.8113 17.481 54.6155 20.4896C27.3753 23.6905 11.538 35.4924 3.52298 52.6942C16.8539 36.4574 33.0492 27.9307 52.1091 27.1142Z" fill-rule="evenodd" style="mix-blend-mode:normal" fill="url(#linear_fill_3_44)" >
</path>
<path d="M87.061 90.047L87.061 90.2966C87.2524 99.3115 78.178 119.144 48.6045 129.823C48.0483 129.916 47.4777 129.804 46.9966 129.505C46.5156 129.207 46.1561 128.743 45.9839 128.199C45.8116 127.654 45.8379 127.065 46.0581 126.538C46.2782 126.011 46.6775 125.583 47.1832 125.33L58.3621 120.115C58.8459 119.894 59.256 119.536 59.5423 119.082C59.8287 118.629 59.9789 118.101 59.9747 117.563C59.9781 117.167 59.8842 116.776 59.7014 116.426C59.5538 116.091 59.3423 115.79 59.0793 115.539C58.8162 115.288 58.5067 115.092 58.1687 114.963C57.8307 114.834 57.4709 114.775 57.11 114.788C56.7491 114.801 56.3943 114.886 56.0662 115.039L39.7761 122.667C39.1921 122.944 38.5611 123.104 37.9175 123.139C37.4058 123.168 36.8954 123.06 36.4384 122.824C35.9814 122.589 35.5942 122.234 35.3163 121.797C35.0385 121.36 34.8798 120.856 34.8566 120.336C34.8334 119.817 34.9465 119.3 35.1843 118.839C35.2859 118.638 35.4364 118.466 35.6216 118.34L42.1267 114.928C42.8869 114.535 43.5008 113.903 43.876 113.125C43.9404 112.582 43.8453 112.032 43.6026 111.544C43.4464 111.09 43.1943 110.676 42.8638 110.331C42.5333 109.986 42.1324 109.718 41.6894 109.547C41.4886 109.451 41.2692 109.401 41.0471 109.401C40.8249 109.401 40.6056 109.451 40.4048 109.547L28.8432 115.566C28.3785 115.816 26.5473 116.592 24.9347 117.258C24.0958 117.615 23.153 117.627 22.3059 117.29C21.4589 116.953 20.7744 116.295 20.3975 115.455C20.3857 115.344 20.3857 115.233 20.3975 115.122C20.288 114.732 20.3253 114.314 20.5021 113.951C20.6788 113.587 20.9825 113.302 21.3541 113.153C28.0505 110.379 56.8862 98.1465 61.9153 80.727C62.0061 80.4006 62.1621 80.0967 62.3737 79.8342C62.5853 79.5717 62.848 79.3563 63.1453 79.2014C73.3675 74.1253 89.2203 75.5677 87.061 90.047Z" fill-rule="evenodd" style="mix-blend-mode:normal" fill="url(#linear_fill_3_45)" >
</path>
<path d="M31.2933 129.045L39.4481 125.354C40.4364 124.906 41.5709 125.309 41.9823 126.254L42.3546 127.109C42.7659 128.053 42.2982 129.182 41.3099 129.629L33.1551 133.32C32.1668 133.768 31.0322 133.365 30.6209 132.42L30.2485 131.565C29.8372 130.621 30.305 129.492 31.2933 129.045Z"  style="mix-blend-mode:normal" fill="#C2F5E7" >
</path>
<g opacity="0.1">
<path d="M85.4305 94.3112C81.9352 105.177 74.3684 114.239 64.3421 119.565C73.1142 112.797 80.3118 104.178 85.4305 94.3112Z" fill-rule="evenodd" style="mix-blend-mode:normal" fill="#FFFFFF" >
</path>
</g>
<path d="M59.8214 81.4173C69.5952 74.8907 90.6802 74.5312 88.072 88.6353C89.2808 84.7434 89.4239 80.595 88.4865 76.6279C87.549 72.6609 85.5657 69.0223 82.7459 66.0964C69.4579 52.2688 45.8471 68.696 29.1823 71.8763C23.0051 72.9549 19.6282 67.1749 25.8878 63.2203C26.2395 62.961 26.6167 62.7386 27.0134 62.5565C19.5458 66.7601 8.72875 79.1496 19.134 87.4462C28.2763 91.3455 42.6899 90.4329 59.8214 81.4173Z" fill-rule="evenodd" style="mix-blend-mode:normal" fill="url(#linear_fill_3_48)" >
</path>
<defs>
<linearGradient id="linear_fill_3_44" x1="2.063201904296875" y1="46.0709228515625" x2="92.81765747070312" y2="46.0709228515625" gradientUnits="userSpaceOnUse">
<stop offset="0" stop-color="#C2F5E7"  />
<stop offset="0.49000000953674316" stop-color="#69C5E4"  />
<stop offset="1" stop-color="#69C5E4"  />
</linearGradient>
<linearGradient id="linear_fill_3_45" x1="42.64642333984375" y1="116.95263671875" x2="98.62405395507812" y2="74.014404296875" gradientUnits="userSpaceOnUse">
<stop offset="0" stop-color="#C2F5E7"  />
<stop offset="0.49000000953674316" stop-color="#69C5E4"  />
<stop offset="1" stop-color="#69C5E4"  />
</linearGradient>
<linearGradient id="linear_fill_3_48" x1="47.960113525390625" y1="75.02978515625" x2="-26.109649658203125" y2="71.876953125" gradientUnits="userSpaceOnUse">
<stop offset="0" stop-color="#C2F5E7"  />
<stop offset="0.5" stop-color="#69C5E4"  />
<stop offset="1" stop-color="#69C5E4"  />
</linearGradient>
</defs>
</svg>
